Coordinates
version=1
nRows=38
nColumns=12
inDegrees=yes

Units are S.I. units (second, meters, Newtons, ...)
Angles are in degrees

endheader
time	SC_y	SC_z	SC_x	AC_y	AC_z	AC_x	GH_y	GH_z	GH_yy	EL_x	PS_y
       0.0              -49.94          26.89          75.25          30.24         -19.28          12.25          133.6          20.12          -22.7          115.9          155.2
   0.04113              -49.94          26.89          75.24          30.25         -19.28          12.25          133.6          20.12         -22.72          115.9          155.2
   0.08225              -49.93          26.89          75.23          30.25         -19.28          12.25          133.5          20.13         -22.73          115.9          155.2
    0.1234              -49.93          26.89          75.22          30.26         -19.28          12.25          133.5          20.14         -22.75          115.9          155.2
    0.1645              -49.93           26.9          75.21          30.26         -19.27          12.25          133.4          20.15         -22.77          115.9          155.2
    0.2056              -49.93           26.9           75.2          30.27         -19.27          12.25          133.4          20.16         -22.79          115.9          155.2
    0.2468              -49.92           26.9          75.18          30.28         -19.27          12.25          133.3          20.17         -22.81          115.9          155.2
    0.2879              -49.92           26.9          75.17          30.29         -19.26          12.25          133.2          20.18         -22.83          115.9          155.2
     0.329              -49.92           26.9          75.15          30.29         -19.26          12.25          133.2           20.2         -22.85          115.9          155.2
    0.3701              -49.91           26.9          75.14           30.3         -19.25          12.25          133.1          20.21         -22.88          115.9          155.2
    0.4113              -49.91           26.9          75.12          30.31         -19.25          12.26          133.0          20.23          -22.9          115.9          155.2
    0.4524               -49.9          26.91           75.1          30.32         -19.25          12.26          132.9          20.24         -22.93          115.9          155.2
    0.4935               -49.9          26.91          75.08          30.33         -19.24          12.26          132.9          20.26         -22.96          115.9          155.2
    0.5346              -49.89          26.91          75.06          30.34         -19.23          12.26          132.8          20.28          -23.0          115.9          155.2
    0.5758              -49.89          26.91          75.03          30.36         -19.23          12.26          132.6           20.3         -23.03          115.9          155.2
    0.6169              -49.88          26.91           75.0          30.37         -19.22          12.26          132.5          20.32         -23.07          115.9          155.2
     0.658              -49.88          26.92          74.98          30.39         -19.21          12.26          132.4          20.34         -23.12          115.9          155.2
    0.6991              -49.87          26.92          74.94           30.4         -19.21          12.27          132.3          20.37         -23.16          115.9          155.2
    0.7403              -49.86          26.92          74.91          30.42          -19.2          12.27          132.1          20.39         -23.21          115.9          155.2
    0.7814              -49.86          26.92          74.87          30.44         -19.19          12.27          132.0          20.43         -23.27          115.9          155.2
    0.8225              -49.85          26.93          74.83          30.46         -19.18          12.27          131.8          20.46         -23.33          115.9          155.2
    0.8637              -49.84          26.93          74.79          30.48         -19.17          12.28          131.6           20.5          -23.4          115.9          155.2
    0.9048              -49.83          26.94          74.74          30.51         -19.15          12.28          131.4          20.54         -23.47          115.9          155.2
    0.9459              -49.81          26.94          74.68          30.54         -19.14          12.28          131.1          20.58         -23.55          115.9          155.2
     0.987               -49.8          26.95          74.62          30.57         -19.12          12.29          130.9          20.63         -23.65          115.9          155.2
     1.028              -49.79          26.95          74.55          30.61         -19.11          12.29          130.6          20.69         -23.75          115.9          155.2
     1.069              -49.77          26.96          74.47          30.65         -19.09           12.3          130.3          20.75         -23.86          115.9          155.2
      1.11              -49.75          26.97          74.39          30.69         -19.07           12.3          129.9          20.82         -23.99          115.9          155.2
     1.152              -49.73          26.98          74.29          30.74         -19.04          12.31          129.5           20.9         -24.14          115.9          155.2
     1.193               -49.7          26.98          74.18           30.8         -19.01          12.32          129.0          20.99          -24.3          115.9          155.2
     1.234              -49.68           27.0          74.05          30.86         -18.98          12.33          128.4          21.09         -24.49          115.9          155.2
     1.275              -49.65          27.01           73.9          30.94         -18.94          12.34          127.8          21.21         -24.71          115.9          155.2
     1.316              -49.61          27.02          73.74          31.03          -18.9          12.35          127.1          21.35         -24.96          116.0          155.2
     1.357              -49.57          27.04          73.54          31.13         -18.85          12.36          126.2          21.51         -25.25          116.0          155.2
     1.398              -49.52          27.06          73.31          31.24          -18.8          12.38          125.3          21.69         -25.59          116.0          155.2
     1.439              -49.46          27.08          73.04          31.38         -18.73          12.39          124.1          21.91         -25.99          116.0          155.2
     1.481              -49.39          27.11          72.72          31.55         -18.65          12.42          122.7          22.17         -26.47          116.0          155.2
     1.522              -49.31          27.14          72.34          31.75         -18.55          12.44          121.1          22.48         -27.04          116.0          155.2
